<svg xmlns="http://www.w3.org/2000/svg" width="960" height="260" viewBox="0 0 960 260" role="img" aria-labelledby="title desc">
  <title id="title">Agent Assurance Case</title>
  <desc id="desc">AAC wordmark for a signed agent assurance evidence object.</desc>
  <rect width="960" height="260" rx="28" fill="#f8fafc"/>
  <rect x="2" y="2" width="956" height="256" rx="26" fill="none" stroke="#cbd5e1" stroke-width="4"/>
  <g transform="translate(72 50)">
    <path d="M0 42 L72 0 L144 42 L144 124 L72 166 L0 124 Z" fill="#111827"/>
    <path d="M24 56 L72 28 L120 56 L120 110 L72 138 L24 110 Z" fill="none" stroke="#2dd4bf" stroke-width="8" stroke-linejoin="round"/>
    <path d="M45 89 H99" stroke="#f59e0b" stroke-width="8" stroke-linecap="round"/>
    <path d="M72 62 V116" stroke="#f59e0b" stroke-width="8" stroke-linecap="round"/>
  </g>
  <g fill="#111827" font-family="SFMono-Regular, ui-monospace, Menlo, Consolas, monospace">
    <text x="252" y="126" font-size="92" font-weight="800">AAC</text>
    <text x="256" y="172" font-size="26" font-weight="700">AGENT ASSURANCE CASE</text>
  </g>
  <g fill="none" stroke-linecap="round" stroke-width="6">
    <path d="M602 92 H728" stroke="#0f766e"/>
    <path d="M602 132 H812" stroke="#334155"/>
    <path d="M602 172 H760" stroke="#d97706"/>
    <circle cx="840" cy="132" r="18" fill="#111827" stroke="#111827"/>
    <path d="M832 132 L838 139 L850 124" stroke="#ffffff"/>
  </g>
</svg>
